<mxfile host="app.diagrams.net" modified="2020-06-22T20:47:53.090Z" agent="5.0 (Macintosh; Intel Mac OS X 10_14_6) AppleWebKit/537.36 (KHTML, like Gecko) Chrome/83.0.4103.106 Safari/537.36" etag="39FB-zxw_CjHA13AYii_" version="13.3.0" type="github">
  <diagram id="ka1eMCxYFWeyIomrFCMx" name="Page-1">
    <mxGraphModel dx="946" dy="614" grid="1" gridSize="10" guides="1" tooltips="1" connect="1" arrows="1" fold="1" page="1" pageScale="1" pageWidth="850" pageHeight="1100" math="0" shadow="0">
      <root>
        <mxCell id="0" />
        <mxCell id="1" parent="0" />
        <mxCell id="MZ2V2yodYzYzLwzlFAPW-1" value="" style="rounded=0;whiteSpace=wrap;html=1;fontSize=14;strokeColor=none;" vertex="1" parent="1">
          <mxGeometry x="40" y="40" width="700" height="640" as="geometry" />
        </mxCell>
        <mxCell id="MZ2V2yodYzYzLwzlFAPW-2" value="Region" style="rounded=1;arcSize=10;dashed=0;strokeColor=#000000;fillColor=none;gradientColor=none;strokeWidth=2;verticalAlign=bottom;fontSize=16;spacingBottom=4;" vertex="1" parent="1">
          <mxGeometry x="50" y="199" width="680" height="470" as="geometry" />
        </mxCell>
        <mxCell id="MZ2V2yodYzYzLwzlFAPW-3" value="Availability Zone 1" style="rounded=1;arcSize=10;dashed=1;strokeColor=#F59D56;fillColor=none;gradientColor=none;dashPattern=8 4;strokeWidth=2;verticalAlign=bottom;fontSize=14;fontColor=#F59D56;" vertex="1" parent="1">
          <mxGeometry x="90" y="247" width="280" height="374" as="geometry" />
        </mxCell>
        <mxCell id="MZ2V2yodYzYzLwzlFAPW-4" value="Subnet A" style="rounded=1;arcSize=10;dashed=0;strokeColor=#000000;fillColor=none;gradientColor=none;strokeWidth=2;verticalAlign=bottom;align=center;spacingRight=6;fontSize=14;" vertex="1" parent="1">
          <mxGeometry x="130" y="304" width="200" height="280" as="geometry" />
        </mxCell>
        <mxCell id="MZ2V2yodYzYzLwzlFAPW-5" value="Availability Zone 2" style="rounded=1;arcSize=10;dashed=1;strokeColor=#F59D56;fillColor=none;gradientColor=none;dashPattern=8 4;strokeWidth=2;verticalAlign=bottom;fontSize=14;fontColor=#F59D56;" vertex="1" parent="1">
          <mxGeometry x="410" y="247" width="280" height="374" as="geometry" />
        </mxCell>
        <mxCell id="MZ2V2yodYzYzLwzlFAPW-6" value="Subnet B" style="rounded=1;arcSize=10;dashed=0;strokeColor=#000000;fillColor=none;gradientColor=none;strokeWidth=2;verticalAlign=bottom;align=center;spacingRight=8;fontSize=14;" vertex="1" parent="1">
          <mxGeometry x="450" y="304" width="200" height="280" as="geometry" />
        </mxCell>
        <mxCell id="MZ2V2yodYzYzLwzlFAPW-8" value="" style="dashed=0;html=1;shape=mxgraph.aws3.permissions;fillColor=#D9A741;gradientColor=none;dashed=0;" vertex="1" parent="1">
          <mxGeometry x="150" y="284" width="30" height="35" as="geometry" />
        </mxCell>
        <mxCell id="MZ2V2yodYzYzLwzlFAPW-9" value="" style="dashed=0;html=1;shape=mxgraph.aws3.permissions;fillColor=#D9A741;gradientColor=none;dashed=0;" vertex="1" parent="1">
          <mxGeometry x="470" y="284" width="30" height="35" as="geometry" />
        </mxCell>
        <mxCell id="MZ2V2yodYzYzLwzlFAPW-10" style="edgeStyle=orthogonalEdgeStyle;rounded=0;orthogonalLoop=1;jettySize=auto;html=1;exitX=0.5;exitY=1;exitDx=0;exitDy=0;exitPerimeter=0;entryX=0.5;entryY=0.02;entryDx=0;entryDy=0;entryPerimeter=0;fontSize=13;strokeColor=#009900;endFill=1;endArrow=block;startArrow=block;startFill=1;strokeWidth=2;" edge="1" parent="1" target="MZ2V2yodYzYzLwzlFAPW-16">
          <mxGeometry relative="1" as="geometry">
            <Array as="points">
              <mxPoint x="391" y="270" />
              <mxPoint x="230" y="270" />
            </Array>
            <mxPoint x="390.5" y="235" as="sourcePoint" />
          </mxGeometry>
        </mxCell>
        <mxCell id="MZ2V2yodYzYzLwzlFAPW-11" value="Read/Write" style="text;html=1;resizable=0;points=[];align=center;verticalAlign=middle;labelBackgroundColor=#ffffff;fontSize=14;fontStyle=2" vertex="1" connectable="0" parent="MZ2V2yodYzYzLwzlFAPW-10">
          <mxGeometry x="-0.2298" relative="1" as="geometry">
            <mxPoint x="-2" y="-12" as="offset" />
          </mxGeometry>
        </mxCell>
        <mxCell id="MZ2V2yodYzYzLwzlFAPW-12" style="edgeStyle=orthogonalEdgeStyle;rounded=0;orthogonalLoop=1;jettySize=auto;html=1;entryX=0.5;entryY=0.02;entryDx=0;entryDy=0;entryPerimeter=0;strokeWidth=2;fontSize=13;strokeColor=#009900;endFill=1;endArrow=block;startFill=1;startArrow=block;dashed=1;" edge="1" parent="1" target="MZ2V2yodYzYzLwzlFAPW-17">
          <mxGeometry relative="1" as="geometry">
            <Array as="points">
              <mxPoint x="391" y="270" />
              <mxPoint x="550" y="270" />
            </Array>
            <mxPoint x="390.5" y="235" as="sourcePoint" />
          </mxGeometry>
        </mxCell>
        <mxCell id="MZ2V2yodYzYzLwzlFAPW-13" value="Read-Only" style="text;html=1;resizable=0;points=[];align=center;verticalAlign=middle;labelBackgroundColor=#ffffff;fontSize=14;fontStyle=2" vertex="1" connectable="0" parent="MZ2V2yodYzYzLwzlFAPW-12">
          <mxGeometry x="-0.1963" y="1" relative="1" as="geometry">
            <mxPoint y="-11" as="offset" />
          </mxGeometry>
        </mxCell>
        <mxCell id="MZ2V2yodYzYzLwzlFAPW-15" value="VPC &#xa;Security Group" style="rounded=1;arcSize=10;dashed=1;strokeColor=#ff0000;fillColor=none;gradientColor=none;dashPattern=8 4;strokeWidth=2;verticalAlign=bottom;fontSize=14;labelBorderColor=#FFFFFF;fontColor=#FF0000;" vertex="1" parent="1">
          <mxGeometry x="150" y="354" width="480" height="180" as="geometry" />
        </mxCell>
        <mxCell id="MZ2V2yodYzYzLwzlFAPW-16" value="RDS Master" style="outlineConnect=0;dashed=0;verticalLabelPosition=bottom;verticalAlign=top;align=center;html=1;shape=mxgraph.aws3.rds_db_instance;fillColor=#2E73B8;gradientColor=none;fontSize=14;" vertex="1" parent="1">
          <mxGeometry x="192.5" y="394" width="75" height="100" as="geometry" />
        </mxCell>
        <mxCell id="MZ2V2yodYzYzLwzlFAPW-17" value="RDS Read Replica" style="outlineConnect=0;dashed=0;verticalLabelPosition=bottom;verticalAlign=top;align=center;html=1;shape=mxgraph.aws3.rds_db_instance_read_replica;fillColor=#2E73B8;gradientColor=none;fontSize=14;" vertex="1" parent="1">
          <mxGeometry x="513.5" y="395.5" width="73" height="97" as="geometry" />
        </mxCell>
        <mxCell id="MZ2V2yodYzYzLwzlFAPW-18" value="" style="edgeStyle=orthogonalEdgeStyle;html=1;endArrow=block;elbow=vertical;startArrow=none;endFill=1;strokeColor=#545B64;rounded=0;fontSize=13;exitX=1;exitY=0.5;exitDx=0;exitDy=0;exitPerimeter=0;strokeWidth=2;dashed=1;dashPattern=1 1;" edge="1" parent="1" source="MZ2V2yodYzYzLwzlFAPW-16" target="MZ2V2yodYzYzLwzlFAPW-17">
          <mxGeometry width="100" relative="1" as="geometry">
            <mxPoint x="280" y="434" as="sourcePoint" />
            <mxPoint x="380" y="434" as="targetPoint" />
          </mxGeometry>
        </mxCell>
        <mxCell id="MZ2V2yodYzYzLwzlFAPW-19" value="Replication" style="text;html=1;resizable=0;points=[];align=center;verticalAlign=middle;labelBackgroundColor=#ffffff;fontSize=14;fontStyle=2" vertex="1" connectable="0" parent="MZ2V2yodYzYzLwzlFAPW-18">
          <mxGeometry x="-0.7241" y="-2" relative="1" as="geometry">
            <mxPoint x="88" y="-14" as="offset" />
          </mxGeometry>
        </mxCell>
        <mxCell id="MZ2V2yodYzYzLwzlFAPW-20" value="" style="shadow=0;dashed=0;html=1;strokeColor=none;labelPosition=center;verticalLabelPosition=bottom;verticalAlign=top;align=center;shape=mxgraph.azure.user;fillColor=#7D7D7D;fontSize=13;" vertex="1" parent="1">
          <mxGeometry x="358" y="50" width="66" height="70" as="geometry" />
        </mxCell>
        <mxCell id="MZ2V2yodYzYzLwzlFAPW-21" value="" style="edgeStyle=orthogonalEdgeStyle;html=1;endArrow=block;elbow=vertical;startArrow=block;endFill=1;strokeColor=#009900;rounded=0;fontSize=13;entryX=0.5;entryY=0;entryDx=0;entryDy=0;entryPerimeter=0;startFill=1;strokeWidth=2;" edge="1" parent="1" source="MZ2V2yodYzYzLwzlFAPW-20">
          <mxGeometry width="100" relative="1" as="geometry">
            <mxPoint x="389" y="75" as="sourcePoint" />
            <mxPoint x="390.5" y="163" as="targetPoint" />
          </mxGeometry>
        </mxCell>
        <mxCell id="MZ2V2yodYzYzLwzlFAPW-22" value="" style="outlineConnect=0;fontColor=#232F3E;gradientColor=#945DF2;gradientDirection=north;fillColor=#5A30B5;strokeColor=#ffffff;dashed=0;verticalLabelPosition=bottom;verticalAlign=top;align=center;html=1;fontSize=12;fontStyle=0;aspect=fixed;shape=mxgraph.aws4.resourceIcon;resIcon=mxgraph.aws4.vpc;" vertex="1" parent="1">
          <mxGeometry x="70" y="163" width="60" height="60" as="geometry" />
        </mxCell>
        <mxCell id="MZ2V2yodYzYzLwzlFAPW-23" value="" style="outlineConnect=0;fontColor=#232F3E;gradientColor=none;fillColor=#5A30B5;strokeColor=none;dashed=0;verticalLabelPosition=bottom;verticalAlign=top;align=center;html=1;fontSize=12;fontStyle=0;aspect=fixed;pointerEvents=1;shape=mxgraph.aws4.internet_gateway;" vertex="1" parent="1">
          <mxGeometry x="358" y="163" width="67" height="67" as="geometry" />
        </mxCell>
      </root>
    </mxGraphModel>
  </diagram>
</mxfile>
